<?xml version="1.0" standalone="no"?>
<!DOCTYPE svg PUBLIC "-//W3C//DTD SVG 20010904//EN"
 "http://www.w3.org/TR/2001/REC-SVG-20010904/DTD/svg10.dtd">
<svg version="1.0" xmlns="http://www.w3.org/2000/svg"
 width="512.000000pt" height="512.000000pt" viewBox="0 0 512.000000 512.000000"
 preserveAspectRatio="xMidYMid meet">
<metadata>
Created by potrace 1.11, written by Peter Selinger 2001-2013
</metadata>
<g transform="translate(0.000000,512.000000) scale(0.100000,-0.100000)"
fill="#000000" stroke="none">
<path d="M2378 5115 c-2 -2 -37 -6 -78 -9 -41 -4 -84 -9 -95 -11 -11 -3 -36
-7 -55 -9 -165 -24 -387 -88 -575 -166 -591 -246 -1090 -735 -1353 -1325 -59
-132 -122 -313 -148 -425 -51 -227 -66 -346 -69 -565 -2 -206 3 -287 30 -460
18 -112 70 -323 91 -372 8 -17 14 -35 14 -40 0 -28 150 -364 189 -423 6 -8 34
-53 62 -100 56 -91 162 -237 225 -310 73 -85 239 -246 319 -310 44 -36 82 -67
85 -70 16 -18 151 -107 252 -167 98 -59 209 -113 363 -179 88 -37 348 -112
445 -128 309 -52 626 -56 890 -12 68 11 144 26 184 37 23 6 46 12 51 13 304
66 735 292 1017 534 183 156 395 407 524 619 144 236 249 492 311 758 11 51
43 245 50 309 14 126 8 471 -10 593 -52 359 -163 674 -339 967 -56 93 -162
248 -191 278 -7 7 -30 36 -52 63 -41 52 -211 225 -280 285 -247 215 -537 383
-840 486 -209 71 -278 88 -495 120 -89 14 -511 29 -522 19z"/>
</g>
</svg>
